<?xml version="1.0" standalone="no"?>
<!DOCTYPE svg PUBLIC "-//W3C//DTD SVG 20010904//EN"
 "http://www.w3.org/TR/2001/REC-SVG-20010904/DTD/svg10.dtd">
<svg version="1.0" xmlns="http://www.w3.org/2000/svg"
 width="1200.000000pt" height="1280.000000pt" viewBox="0 0 1200.000000 1280.000000"
 preserveAspectRatio="xMidYMid meet">
<metadata>
Created by potrace 1.15, written by Peter Selinger 2001-2017
</metadata>
<g transform="translate(0.000000,1280.000000) scale(0.100000,-0.100000)"
fill="#c4d9ee" stroke="none">
<path d="M7405 12791 l-120 -6 -203 -109 -203 -109 -135 -192 -134 -192 -41
-169 -41 -169 11 -125 c7 -69 14 -146 18 -172 l6 -48 -276 0 -275 0 -93 -71
c-98 -75 -355 -283 -448 -362 l-55 -47 -228 0 c-125 0 -228 -3 -228 -6 0 -4
35 -48 78 -99 l77 -93 151 -51 151 -51 237 0 c216 0 240 2 264 19 38 26 113
63 118 58 4 -4 -110 -99 -226 -187 -146 -111 -540 -469 -540 -490 0 -5 8 -11
18 -14 9 -4 28 -15 41 -25 l23 -18 -143 -45 c-79 -26 -153 -49 -165 -52 -11
-3 -61 -61 -110 -129 -107 -145 -153 -218 -160 -256 -6 -26 -3 -29 33 -34 21
-4 75 -9 121 -13 45 -4 85 -11 88 -15 4 -7 -223 -15 -313 -12 -7 1 -13 -3 -13
-7 0 -20 50 -46 157 -81 65 -22 105 -37 88 -34 -105 16 -328 36 -334 29 -5 -5
-38 -66 -74 -136 l-67 -127 42 -35 c24 -19 54 -44 68 -55 l25 -20 -23 -1 c-35
0 -96 -47 -228 -174 l-119 -115 117 -1 116 0 26 -44 c14 -25 26 -48 26 -53 0
-4 -23 -23 -50 -40 l-50 -33 -159 0 -159 0 -81 -124 c-45 -68 -109 -175 -142
-237 l-61 -114 -9 -125 c-4 -69 -13 -209 -20 -312 l-12 -187 81 -87 c45 -48
90 -106 100 -128 11 -23 36 -77 57 -121 59 -128 145 -275 161 -275 8 0 89 19
180 41 l165 42 -3 46 c-3 45 -4 46 -88 102 -85 56 -138 104 -128 114 9 10 147
-89 337 -241 428 -341 627 -467 915 -578 133 -52 190 -80 230 -113 l28 -23 34
21 35 21 122 -47 c152 -60 233 -99 275 -136 l33 -29 37 25 37 25 22 -38 c13
-20 23 -39 23 -42 0 -3 -21 -4 -47 -2 -27 1 -53 -1 -59 -5 -5 -4 -65 -77 -132
-160 -68 -84 -126 -153 -130 -153 -4 0 -70 -5 -147 -10 -397 -28 -712 -41
-1112 -47 l-443 -6 0 45 0 45 -81 -13 c-45 -7 -83 -15 -84 -16 -1 -2 -30 -57
-63 -123 -34 -66 -100 -183 -148 -260 -120 -194 -445 -708 -455 -719 -4 -5
-48 17 -96 47 -374 236 -795 351 -1218 333 -538 -22 -1024 -235 -1429 -626
-330 -318 -583 -762 -695 -1220 -224 -916 28 -1867 664 -2506 71 -72 162 -156
201 -186 545 -428 1219 -576 1865 -409 549 142 1035 509 1360 1027 73 115 184
342 233 475 349 948 134 2049 -536 2745 -54 56 -98 104 -98 108 0 9 385 610
430 671 43 58 66 79 73 68 22 -35 244 -622 439 -1158 109 -299 298 -840 298
-851 0 -2 -24 -4 -54 -4 l-53 0 -53 -112 c-29 -62 -84 -180 -122 -263 l-69
-150 3 -155 4 -155 74 -169 75 -168 75 -62 c41 -33 115 -96 163 -140 l88 -78
128 -6 c106 -4 149 -1 252 18 68 13 133 29 143 36 11 8 91 84 177 170 l157
156 26 106 c36 147 45 218 51 378 l5 138 61 28 60 27 9 -25 c6 -14 13 -36 16
-49 6 -23 11 -25 59 -25 59 0 64 6 65 90 1 35 3 40 10 24 5 -12 12 -42 15 -68
l7 -46 72 0 c115 0 411 63 442 94 21 22 99 293 129 450 l13 69 -55 51 c-31 28
-59 52 -62 54 -4 1 -32 -21 -64 -49 l-57 -51 0 71 c0 81 6 77 -99 56 -40 -9
-76 -14 -79 -11 -2 3 3 17 12 32 10 14 16 28 13 30 -2 2 -45 24 -95 49 -57 27
-92 50 -92 60 0 20 10 19 40 -5 14 -11 31 -20 38 -20 19 0 304 283 812 805
246 253 490 500 543 548 l96 88 93 -183 c51 -101 94 -188 96 -194 2 -7 -28
-45 -65 -85 -334 -361 -557 -818 -643 -1319 -177 -1031 243 -2062 1063 -2613
120 -81 361 -201 502 -250 346 -121 753 -144 1124 -65 539 115 1044 465 1383
958 558 813 608 1925 127 2800 -275 501 -723 895 -1231 1084 -380 141 -826
165 -1225 66 -219 -55 -453 -155 -631 -270 -42 -27 -77 -48 -78 -47 -20 26
-271 649 -400 990 -46 122 -49 127 -76 127 -42 0 -98 -32 -146 -84 -35 -38
-42 -52 -42 -86 l0 -40 -441 0 -440 0 -58 -122 -58 -123 196 -7 c108 -3 370
-10 582 -13 l386 -7 11 -96 c6 -53 10 -97 8 -99 -2 -2 -19 22 -38 53 l-35 56
-144 -156 -144 -156 -47 0 -46 0 -8 -57 c-7 -58 -8 -58 -118 -163 -366 -347
-863 -831 -999 -974 l-158 -165 24 -38 c13 -21 36 -60 52 -88 l28 -49 -66 59
c-37 32 -67 59 -67 60 0 1 9 50 20 110 11 60 20 113 20 117 0 5 -32 8 -72 6
l-71 -3 -55 -87 c-31 -49 -57 -87 -58 -85 -1 1 6 36 17 77 128 484 165 575
535 1310 245 488 363 710 440 828 l54 83 0 152 0 153 -101 160 c-171 269 -290
424 -613 791 -84 96 -113 119 -483 385 l-393 283 0 38 c0 44 -8 47 112 -40
l87 -63 44 63 c72 101 111 166 166 275 51 102 51 102 29 111 -13 5 -50 22 -83
37 l-60 29 97 3 97 3 81 102 c45 56 113 148 151 205 38 57 69 101 69 99 0 -3
-13 -35 -29 -72 l-29 -68 25 -80 c35 -114 94 -276 141 -387 94 -224 101 -234
277 -435 237 -270 440 -511 542 -645 57 -74 101 -121 123 -132 19 -10 96 -46
170 -81 l136 -64 27 -60 c15 -33 28 -73 29 -88 3 -34 24 -43 128 -51 78 -7 80
-6 80 15 0 30 -22 71 -55 101 -34 32 -55 72 -55 106 0 22 10 12 66 -64 l66
-90 67 28 66 28 3 55 3 54 -63 18 -63 19 75 8 c41 4 77 5 80 0 4 -4 16 -23 28
-43 l21 -35 -122 -126 -122 -127 -71 -6 c-39 -4 -75 -10 -82 -13 -6 -5 -15
-79 -21 -192 l-10 -184 31 -55 c17 -31 33 -58 34 -60 2 -2 30 6 64 19 l60 22
0 122 0 121 157 157 c86 87 158 157 159 155 2 -1 -6 -61 -16 -132 -31 -215
-40 -348 -40 -600 l1 -240 42 -48 43 -49 77 82 c116 123 158 188 271 422 103
212 104 214 126 348 12 74 24 145 27 158 5 23 4 23 -52 21 l-59 -3 -22 67
c-17 50 -34 79 -66 110 -29 28 -53 65 -71 110 -15 37 -27 71 -27 75 0 8 106
42 130 42 6 0 -9 -27 -35 -59 l-45 -60 79 -79 c68 -66 81 -85 87 -120 l7 -42
148 0 148 0 22 73 c12 39 25 76 29 80 4 5 41 -1 82 -12 113 -32 108 -35 108
64 l0 85 -54 0 -54 0 -118 162 -119 161 -190 47 c-104 26 -253 69 -330 94
l-140 47 -240 265 c-318 352 -563 603 -669 688 -47 38 -86 76 -86 83 0 8 9 87
20 176 41 332 51 447 56 647 l6 205 134 262 134 263 0 135 0 135 -40 80 -40
80 -60 0 c-33 0 -60 3 -60 8 0 4 23 22 51 41 27 19 48 36 46 38 -3 2 -35 12
-73 23 -102 29 -96 25 -73 65 12 19 23 35 26 35 3 0 28 -20 56 -46 50 -45 50
-45 70 -25 24 24 38 1 -142 230 -173 219 -249 326 -306 430 l-46 84 30 31 31
31 25 -30 c14 -17 123 -157 243 -313 l217 -283 3 300 2 300 58 51 57 51 3
-420 2 -420 110 -36 c60 -19 140 -40 178 -47 108 -18 132 8 132 150 0 55 15
93 57 149 l24 32 -25 16 c-14 10 -26 20 -26 24 0 4 36 34 80 67 l79 59 1 63 0
62 39 0 40 0 -24 70 c-22 65 -37 148 -49 277 l-5 52 56 27 c49 24 71 28 171
32 l115 5 -6 101 c-8 140 -73 401 -110 446 -15 17 -112 125 -216 239 l-189
206 -194 58 c-212 63 -191 61 -483 48z m632 -370 c164 -126 169 -131 220 -218
76 -129 113 -213 113 -255 0 -21 -5 -38 -10 -38 -17 0 -370 -40 -443 -51 -42
-5 -154 -42 -295 -95 l-227 -85 -265 -18 c-286 -20 -269 -22 -334 32 l-30 24
28 109 c35 134 101 302 164 414 l48 85 174 112 175 113 257 0 257 0 168 -129z
m-864 -1551 c27 -30 63 -75 79 -99 l31 -44 -36 7 c-19 4 -58 13 -86 22 l-51
15 15 29 c20 39 19 53 -6 76 -32 28 -79 95 -79 112 0 18 64 -39 133 -118z
m-793 65 c0 -32 -3 -35 -42 -45 -43 -10 -225 -69 -263 -85 -18 -8 -19 -7 -6 9
14 16 284 156 303 156 4 0 8 -16 8 -35z m880 -264 c0 -5 -51 -21 -112 -35
-166 -39 -160 -38 -153 -26 9 15 79 49 122 59 51 12 143 13 143 2z m-350 -250
c0 -22 -193 -241 -213 -241 -13 0 24 48 118 154 85 95 95 104 95 87z m-224
-683 c-37 -128 -64 -276 -98 -548 -2 -14 -7 40 -11 119 -4 79 -8 146 -10 148
-4 3 -139 -31 -171 -43 -13 -5 -16 1 -16 35 l0 42 115 54 115 54 0 80 0 81 41
0 c38 0 41 -2 35 -22z m-48 -1203 c0 -44 -4 -91 -8 -105 -5 -15 -8 26 -8 105
0 79 3 120 8 105 4 -14 8 -61 8 -105z m-1441 -42 c35 -32 100 -100 146 -152
l84 -93 -48 -87 -49 -86 -72 -5 -73 -5 70 -35 70 -35 -102 -3 -103 -3 0 -39
c0 -48 -9 -47 168 -16 l132 23 0 -86 0 -86 103 -60 c311 -180 660 -450 917
-710 l115 -116 -190 -188 c-236 -233 -285 -267 -285 -197 0 32 -9 40 -242 212
-730 536 -844 632 -978 824 -40 58 -86 124 -102 146 l-29 41 21 119 c26 151
52 246 95 359 67 173 149 310 206 344 40 25 58 17 146 -66z m1508 -348 c26
-33 93 -107 149 -165 56 -58 111 -116 121 -129 43 -53 -21 -2 -159 126 -77 70
-154 141 -173 156 -34 30 -40 52 -27 116 l7 32 17 -38 c9 -21 39 -65 65 -98z
m-2734 -360 c29 -198 32 -209 109 -305 89 -112 150 -200 150 -217 0 -29 -41
-11 -82 37 -24 27 -83 113 -132 191 l-88 141 8 176 c5 98 10 164 11 147 2 -16
13 -93 24 -170z m3194 -74 c81 -60 171 -113 382 -227 109 -59 211 -116 227
-127 26 -18 27 -21 11 -30 -27 -15 -160 0 -212 23 -60 27 -201 141 -379 307
-138 128 -181 175 -111 118 17 -14 55 -43 82 -64z m1770 -749 l-7 -89 -77 -7
c-42 -4 -97 -9 -123 -13 l-48 -6 0 40 0 40 85 -19 c47 -11 92 -18 99 -15 7 3
26 41 42 86 15 44 30 78 32 76 2 -2 0 -44 -3 -93z m-540 -167 c34 -33 86 -99
118 -147 31 -49 61 -88 66 -88 5 0 31 9 57 20 l47 21 -6 -78 c-5 -76 -27 -173
-69 -302 -15 -46 -50 -106 -129 -216 l-109 -153 -75 -4 -75 -3 0 198 0 197 60
266 61 265 -47 66 -47 66 44 -24 c24 -13 71 -51 104 -84z m-2515 -1350 c0 -26
-35 -103 -64 -140 -12 -16 -11 -6 5 44 11 35 18 65 16 67 -1 2 -57 8 -122 14
-66 7 -127 15 -135 18 -8 4 53 9 135 12 83 3 153 7 158 8 4 1 7 -9 7 -23z
m-710 -34 l65 -6 -57 -13 c-32 -7 -58 -19 -58 -26 0 -6 16 -67 36 -136 28 -98
33 -125 22 -131 -49 -28 -238 -170 -313 -235 -49 -42 -110 -90 -134 -106 l-45
-28 -23 62 c-67 178 -193 566 -193 595 l0 33 318 -1 c174 -1 346 -4 382 -8z
m4855 -514 c241 -46 434 -117 630 -232 551 -324 937 -915 1035 -1585 80 -550
-27 -1106 -300 -1560 -312 -519 -788 -860 -1348 -966 -114 -22 -167 -26 -317
-26 -99 -1 -216 4 -260 11 -414 64 -767 240 -1069 531 -392 378 -623 876 -675
1450 -56 612 134 1230 519 1694 l83 99 166 -329 c175 -345 402 -745 523 -917
61 -88 92 -120 227 -234 203 -172 279 -229 370 -276 l74 -38 74 73 73 72 0 74
0 74 -61 64 -61 63 -91 3 -91 3 -196 237 -195 236 -89 199 c-136 302 -416 943
-416 951 0 14 166 114 275 167 182 88 406 153 615 179 77 9 427 -3 505 -17z
m-7511 -203 c206 -27 416 -90 601 -181 104 -52 236 -136 231 -149 -9 -22 -659
-1040 -675 -1055 -9 -9 -133 -78 -276 -153 l-261 -136 -84 -92 c-121 -131
-185 -213 -224 -288 l-34 -65 41 -152 42 -153 32 0 33 0 0 -65 0 -65 30 0 c31
0 50 -22 50 -59 0 -20 -6 -21 -97 -21 -96 0 -98 1 -114 28 -9 15 -35 60 -59
100 l-42 72 41 117 42 117 -20 20 c-24 23 -19 33 -65 -127 l-34 -118 43 -102
43 -102 68 -24 c55 -19 97 -24 210 -29 l141 -5 17 -54 c19 -59 23 -60 90 -26
l29 15 -7 -38 c-3 -22 -12 -72 -18 -111 -6 -40 -14 -73 -17 -73 -4 0 -26 29
-50 65 -24 36 -46 63 -48 61 -2 -2 6 -38 18 -81 11 -42 17 -81 12 -85 -4 -5
-30 -17 -58 -28 l-50 -20 -3 -120 -3 -120 78 -41 c42 -22 78 -39 79 -38 1 1
-24 25 -57 52 l-58 50 2 69 2 69 115 62 c108 59 201 128 188 141 -4 3 -28 -4
-54 -15 -26 -12 -49 -19 -51 -17 -2 2 1 24 7 47 6 24 16 61 21 82 l10 38 55
-47 54 -47 -18 39 c-46 101 -83 144 -123 144 -16 0 -19 8 -19 45 0 25 2 45 5
45 3 0 28 -11 55 -25 27 -14 52 -25 55 -25 3 0 5 18 5 40 l0 40 55 0 55 0 0
45 0 45 60 0 c33 0 60 3 60 8 0 4 -9 31 -20 60 l-20 52 35 0 36 0 -6 88 c-3
48 -10 161 -15 250 l-11 164 27 20 c14 12 122 165 239 342 118 176 265 394
327 482 62 89 165 241 228 339 l115 177 68 -74 c248 -269 420 -575 522 -927
164 -571 111 -1176 -150 -1706 -214 -436 -539 -766 -950 -965 -741 -360 -1589
-200 -2183 411 -333 344 -542 789 -613 1309 -19 134 -16 477 4 613 41 271 107
487 216 712 214 437 546 777 956 975 330 160 689 220 1039 174z m3202 -167
c-27 -143 -103 -412 -207 -729 l-100 -308 -35 0 c-28 0 -44 -8 -71 -35 -19
-19 -32 -39 -28 -45 11 -18 125 -91 181 -116 30 -13 70 -24 88 -24 59 0 66 -7
66 -66 0 -65 -6 -66 -88 -23 -39 20 -96 37 -168 51 -60 11 -115 23 -122 26 -8
4 -51 111 -97 237 -45 127 -94 260 -108 297 l-26 67 83 99 c97 116 243 310
385 512 97 138 105 147 179 192 l77 46 3 -49 c2 -28 -4 -87 -12 -132z m-55
-1120 l80 -34 -57 -7 c-31 -3 -58 -5 -59 -4 -1 2 -23 31 -49 66 l-48 63 23 26
24 25 3 -50 3 -50 80 -35z m529 -15 c58 -23 150 -64 205 -91 l100 -49 -90 -1
c-119 -1 -135 4 -135 40 0 35 -3 35 -46 8 l-34 -21 0 41 0 41 -75 0 c-48 0
-75 4 -75 11 0 15 33 70 40 67 3 -2 53 -22 110 -46z m-3602 -200 c-1 -4 -23
-42 -47 -84 l-44 -76 -56 -7 c-31 -3 -96 -13 -145 -21 -48 -8 -90 -13 -92 -11
-4 4 118 85 200 132 44 26 159 73 179 74 5 1 7 -2 5 -7z m3637 -82 c-36 -88
-41 -110 -26 -110 11 0 76 71 130 143 24 31 45 57 46 57 2 0 -11 -35 -29 -77
-33 -79 -49 -137 -40 -145 6 -7 236 34 329 57 39 10 126 38 194 62 68 24 125
42 126 41 2 -2 -2 -32 -8 -68 l-12 -65 -55 -12 c-243 -57 -1297 -254 -1351
-252 -13 0 -62 20 -109 44 -74 37 -82 44 -60 49 26 6 399 56 418 56 6 0 14 16
18 36 4 19 12 38 19 40 7 3 37 -2 66 -10 29 -9 58 -16 64 -16 6 0 45 40 86 89
40 50 75 86 77 82 1 -5 -6 -32 -18 -60 -11 -28 -20 -54 -20 -57 0 -3 16 -4 36
-2 31 3 38 8 48 39 11 31 97 171 103 165 1 -1 -13 -40 -32 -86z m425 -290 l0
-40 -60 0 -60 0 0 40 0 40 60 0 60 0 0 -40z m-1275 -135 c102 -12 102 -12 114
-62 7 -25 10 -48 7 -50 -2 -3 -50 5 -105 18 -61 13 -105 19 -110 13 -5 -5 -18
-38 -30 -73 l-21 -65 39 -45 c69 -83 109 -81 206 10 62 58 65 60 65 35 0 -59
-65 -151 -127 -178 l-45 -20 -51 26 c-29 14 -69 42 -89 61 -38 35 -38 36 -38
113 0 76 0 78 52 154 35 52 58 77 68 74 8 -2 38 -7 65 -11z m-507 -257 c13
-13 15 -131 3 -183 -7 -27 -9 -23 -24 42 -29 121 -19 181 21 141z m206 -385
c58 -61 58 -63 31 -63 -29 0 -93 28 -133 59 l-24 17 24 27 c12 15 28 26 33 24
6 -1 37 -30 69 -64z"/>
<path d="M7423 12492 c-151 -47 -152 -48 -281 -142 -139 -102 -142 -105 -142
-197 0 -51 27 -43 200 55 l156 89 214 16 215 17 108 -35 c164 -52 172 -53 191
-16 9 16 16 32 16 34 0 2 -48 42 -107 89 l-108 85 -151 27 c-83 14 -153 26
-155 25 -2 0 -72 -21 -156 -47z"/>
<path d="M7590 12195 c-308 -55 -543 -152 -611 -251 l-31 -45 27 -41 c33 -49
15 -52 290 56 l210 84 285 17 c157 9 291 19 298 21 7 2 12 22 12 53 l0 50 -52
15 c-29 8 -93 26 -143 41 -106 30 -123 30 -285 0z"/>
<path d="M10157 4547 l-47 -22 2 -139 3 -139 100 -42 c158 -66 251 -120 396
-231 l55 -42 50 60 c63 78 124 169 124 186 0 23 -81 90 -220 183 -137 92 -361
210 -396 208 -10 0 -40 -11 -67 -22z"/>
<path d="M680 2027 l-85 -22 -3 -53 c-2 -35 4 -77 19 -120 29 -91 125 -282
192 -384 64 -96 169 -223 192 -232 19 -7 73 41 175 154 l69 77 -56 59 c-75 78
-153 199 -252 388 l-82 156 -42 -1 c-23 0 -80 -10 -127 -22z"/>
<path d="M2275 1575 c-67 -40 -107 -83 -103 -113 7 -59 70 -32 118 51 34 59
37 51 20 -67 -6 -38 -8 -71 -5 -74 8 -8 219 20 233 31 6 5 12 25 12 43 0 31
-3 34 -22 29 -86 -20 -159 -32 -162 -26 -2 3 -7 22 -11 41 -14 69 -26 110 -33
109 -4 0 -25 -11 -47 -24z"/>
<path d="M4257 6850 l-308 -88 -227 23 c-125 13 -262 25 -305 28 l-77 4 -45
-70 c-49 -77 -57 -123 -27 -150 9 -9 46 -29 82 -46 l65 -30 -41 0 c-23 -1 -56
-4 -73 -7 -31 -7 -30 -7 41 -40 l73 -34 -42 0 c-49 0 -51 -5 -29 -85 25 -94
22 -92 143 -99 60 -4 201 -11 315 -16 l207 -9 208 123 c114 68 210 122 212
120 2 -2 -6 -18 -18 -37 -11 -19 -21 -39 -21 -45 0 -6 38 -58 84 -115 92 -114
204 -282 285 -423 l51 -92 69 29 c84 35 169 58 193 51 15 -3 7 -12 -33 -41
l-52 -36 448 -3 c246 -1 449 -1 451 1 7 7 -124 417 -144 448 -30 50 -82 83
-209 135 -155 65 -318 148 -490 253 -83 50 -156 91 -162 91 -7 0 -29 -9 -51
-20 -22 -11 -41 -20 -42 -20 -2 0 -3 30 -3 67 l0 67 -93 78 c-50 43 -100 78
-110 77 -9 0 -156 -41 -325 -89z m443 -242 c-24 -20 -158 -90 -206 -108 -69
-26 26 49 127 100 81 42 126 46 79 8z"/>
<path d="M7430 6862 c0 -17 46 -89 93 -147 22 -26 28 -29 53 -20 32 11 84 99
68 115 -16 16 -162 70 -188 70 -18 0 -26 -5 -26 -18z"/>
<path d="M4053 6202 c-23 -9 -45 -20 -48 -24 -6 -6 127 -351 140 -366 2 -2 32
10 69 27 l66 30 -25 54 c-46 104 -145 297 -153 296 -4 0 -26 -8 -49 -17z"/>
<path d="M7925 6102 c-156 -83 -201 -130 -121 -125 82 5 232 100 224 142 -5
26 -30 23 -103 -17z"/>
<path d="M3627 5883 c-4 -3 -7 -49 -7 -101 l0 -95 61 -111 c67 -122 103 -174
127 -183 23 -10 50 31 63 98 6 32 13 59 14 59 1 0 28 -11 59 -25 31 -14 59
-25 61 -25 3 0 5 30 5 68 l-1 67 -79 53 -80 54 0 74 0 74 -108 0 c-60 0 -112
-3 -115 -7z"/>
<path d="M4418 4412 c-25 -48 -56 -123 -68 -167 -12 -44 -42 -126 -67 -184
l-44 -104 52 -116 c92 -205 177 -375 202 -405 l24 -30 102 129 c57 70 105 133
107 140 6 14 -242 804 -257 819 -2 3 -25 -35 -51 -82z"/>
</g>
</svg>
