<?xml version="1.0" standalone="no"?>
<!DOCTYPE svg PUBLIC "-//W3C//DTD SVG 20010904//EN"
 "http://www.w3.org/TR/2001/REC-SVG-20010904/DTD/svg10.dtd">
<svg version="1.0" xmlns="http://www.w3.org/2000/svg"
 width="1280.000000pt" height="1139.000000pt" viewBox="0 0 1280.000000 1139.000000"
 preserveAspectRatio="xMidYMid meet">
<metadata>
Created by potrace 1.15, written by Peter Selinger 2001-2017
</metadata>
<g transform="translate(0.000000,1139.000000) scale(0.100000,-0.100000)"
fill="#c4d9ee" stroke="none">
<path d="M8115 11381 c-38 -4 -200 -55 -445 -140 -212 -73 -393 -137 -402
-142 -26 -14 -48 -63 -48 -108 0 -24 16 -81 40 -140 22 -54 40 -108 40 -120 0
-11 -13 -35 -28 -53 -15 -18 -40 -52 -55 -75 -15 -23 -39 -50 -54 -60 -37 -25
-121 -20 -212 11 -73 25 -81 26 -335 26 -287 0 -412 9 -647 45 -154 24 -159
24 -355 9 -417 -30 -558 -55 -794 -139 -52 -19 -174 -59 -270 -90 -282 -90
-318 -108 -600 -304 -47 -32 -177 -119 -290 -193 -263 -173 -378 -265 -520
-418 -63 -68 -174 -185 -247 -260 -145 -151 -220 -256 -247 -346 -28 -96 -82
-262 -120 -369 -19 -55 -41 -135 -47 -178 -10 -71 -9 -87 11 -175 54 -233 78
-284 229 -487 91 -122 107 -138 198 -201 54 -37 148 -101 208 -143 166 -115
265 -219 347 -367 74 -133 198 -311 313 -449 41 -49 75 -93 75 -97 0 -9 -83
-223 -330 -848 -94 -239 -192 -489 -217 -555 -26 -66 -48 -122 -50 -124 -1 -2
-51 10 -110 27 -232 68 -417 93 -678 93 -395 0 -737 -79 -1083 -251 -1105
-548 -1640 -1806 -1278 -3001 193 -636 654 -1187 1248 -1490 248 -126 504
-206 803 -250 119 -18 501 -18 620 0 386 57 723 181 1025 379 256 167 443 347
683 655 l22 28 84 -55 c88 -59 195 -107 282 -129 42 -10 138 -12 433 -9 l378
4 26 56 c49 108 24 194 -86 290 -89 77 -222 208 -222 219 0 5 51 9 113 9 197
0 332 57 478 203 69 69 94 103 128 171 122 251 106 525 -46 763 l-18 29 81 76
c45 43 676 644 1403 1337 727 693 1325 1261 1329 1263 6 2 112 -319 112 -339
0 -4 -55 -36 -121 -73 -732 -401 -1211 -1078 -1336 -1886 -25 -162 -25 -549 0
-710 69 -446 251 -866 527 -1215 79 -100 261 -287 360 -370 490 -409 1088
-625 1735 -625 436 0 820 89 1204 281 681 339 1177 943 1359 1654 152 594 92
1181 -177 1730 -129 263 -284 479 -491 685 -415 414 -930 668 -1535 756 -168
25 -553 25 -720 1 -151 -22 -315 -59 -436 -97 -51 -16 -95 -28 -96 -26 -9 9
-240 751 -235 753 4 1 72 7 152 12 150 9 251 34 405 98 53 22 65 24 105 15
136 -32 128 -56 -23 -66 -124 -9 -172 -20 -214 -52 -61 -46 -54 -132 12 -160
42 -17 276 -19 375 -3 118 19 304 69 369 99 41 20 79 30 110 30 83 1 181 19
230 45 66 33 109 89 171 220 28 61 64 127 81 147 l29 37 -21 46 c-35 74 -102
125 -251 191 -86 38 -151 74 -183 101 -110 95 -201 133 -317 133 -50 0 -59 5
-75 41 -6 14 -42 66 -79 115 -38 49 -100 136 -139 193 -90 135 -102 141 -255
141 -63 0 -178 -5 -255 -10 -137 -10 -570 -55 -631 -66 -27 -5 -42 3 -119 65
-79 63 -96 84 -186 223 -157 242 -215 367 -244 523 -7 39 -23 106 -34 150 -16
58 -26 146 -37 325 -17 282 -19 296 -70 410 -50 111 -53 191 -11 263 15 26 30
47 32 47 3 0 48 -29 100 -64 111 -75 150 -90 213 -83 60 7 103 52 126 130 22
77 52 108 154 161 48 25 98 52 112 60 14 8 75 18 135 24 118 10 166 27 186 65
18 32 15 93 -9 169 -25 79 -21 99 36 197 46 79 59 112 65 170 9 74 25 83 175
92 78 4 144 14 167 23 l37 16 -7 47 c-29 198 -194 525 -369 735 -137 164 -249
260 -363 310 -26 11 -75 38 -110 59 -207 127 -294 150 -488 130z m-1647 -2670
c11 -7 252 -651 252 -674 0 -4 -20 6 -46 23 -99 69 -275 142 -600 249 -181 59
-360 124 -398 143 l-69 35 184 7 c261 9 355 34 479 126 79 58 149 100 170 100
8 0 21 -4 28 -9z m-1393 -1521 c81 -17 179 -23 520 -35 401 -14 479 -21 604
-55 22 -6 41 -13 41 -16 0 -2 -49 -64 -108 -137 -228 -279 -344 -440 -431
-598 -23 -43 -48 -80 -57 -83 -9 -3 -49 -6 -89 -6 l-73 0 -77 153 c-88 173
-212 400 -344 631 -50 87 -91 160 -91 162 0 5 -8 7 105 -16z m2290 -200 c31
-29 387 -198 792 -375 326 -143 363 -162 372 -187 6 -15 7 -28 3 -28 -4 0
-387 -18 -852 -40 -465 -22 -858 -40 -873 -40 l-29 0 40 48 c22 26 110 122
195 213 l156 166 32 114 c39 136 69 176 116 158 15 -6 37 -19 48 -29z m1935
-105 c194 -24 268 -43 347 -88 l72 -40 -72 -79 c-77 -86 -117 -113 -151 -104
-38 10 -329 167 -466 253 l-135 85 145 -7 c80 -3 196 -13 260 -20z m-5192
-845 c33 -102 119 -367 192 -590 72 -223 135 -416 141 -429 13 -32 1 -101 -62
-341 -27 -102 -60 -234 -74 -295 -15 -60 -29 -118 -31 -128 -5 -15 -22 -2 -92
65 -182 174 -375 312 -592 423 -72 36 -130 69 -130 74 0 8 430 1296 477 1428
l25 72 43 -46 c37 -42 49 -68 103 -233z m4901 179 c64 -34 143 -80 175 -103
l59 -41 -109 -17 c-60 -9 -124 -18 -143 -20 l-34 -3 -32 95 c-39 115 -48 150
-39 150 4 0 59 -28 123 -61z m-383 -94 c13 -44 149 -474 163 -516 10 -29 222
175 -2234 -2164 -358 -341 -658 -626 -667 -633 -13 -10 -22 -9 -54 9 -22 13
-41 24 -42 25 -3 2 120 460 179 667 l10 38 87 -6 c90 -7 300 6 479 29 129 17
163 38 163 99 0 37 -6 47 -58 97 -32 31 -80 69 -107 85 -28 15 -81 48 -120 72
-38 24 -133 76 -210 115 -345 174 -479 277 -548 418 -30 60 -32 73 -32 165 1
83 5 114 29 180 32 93 106 235 180 350 92 140 362 493 554 723 l186 222 51 1
c27 0 430 15 895 34 465 18 899 32 965 31 l119 -1 12 -40z m-5057 -745 c-99
-294 -181 -535 -183 -537 -8 -8 -56 21 -53 31 103 259 304 771 349 889 34 86
62 156 64 154 2 -2 -78 -243 -177 -537z m1029 158 l90 -117 -9 -44 c-8 -46
-38 -117 -49 -117 -3 0 -15 28 -25 63 -10 34 -40 127 -67 206 -26 80 -44 141
-39 135 5 -5 49 -62 99 -126z m5957 -527 c271 -47 477 -112 710 -226 634 -311
1091 -856 1274 -1520 50 -181 72 -331 78 -535 12 -403 -56 -730 -226 -1085
-250 -521 -706 -954 -1244 -1179 -573 -240 -1210 -267 -1790 -74 -388 128
-716 335 -1002 629 -339 349 -548 756 -636 1239 -27 147 -37 493 -19 649 54
473 243 905 553 1267 201 235 473 451 734 583 l62 31 60 -188 c33 -103 90
-281 126 -397 160 -506 266 -839 303 -955 l40 -125 114 -134 c62 -73 123 -146
135 -161 l22 -27 -26 -63 c-63 -158 12 -333 176 -408 45 -21 71 -26 136 -26
123 0 221 53 283 152 129 205 -8 472 -251 490 l-68 5 -61 73 c-53 63 -70 93
-113 206 -86 222 -259 669 -354 915 -49 128 -115 312 -146 410 -31 98 -68 212
-81 253 -29 91 -30 96 -1 103 12 2 63 16 112 31 109 33 309 73 425 85 147 16
537 6 675 -18z m-7885 -182 c200 -18 520 -88 520 -113 0 -10 -86 -230 -360
-926 -94 -239 -216 -550 -272 -692 l-100 -256 -42 -6 c-62 -10 -139 -49 -186
-96 -98 -98 -122 -240 -61 -364 91 -185 317 -243 494 -125 48 31 112 116 123
162 4 17 13 27 25 27 10 0 258 -27 551 -60 293 -33 541 -60 551 -60 9 0 17 -4
17 -9 0 -5 -34 -55 -76 -112 -98 -133 -122 -183 -139 -281 -8 -43 -26 -122
-40 -175 -59 -221 -39 -300 92 -365 58 -28 72 -31 230 -40 209 -11 259 -24
324 -85 27 -25 49 -50 49 -56 0 -32 -195 -263 -335 -398 -266 -255 -628 -456
-988 -548 -211 -55 -309 -66 -572 -66 -263 0 -361 11 -572 66 -676 173 -1258
677 -1536 1330 -137 322 -195 637 -184 1004 11 364 91 679 254 997 425 832
1321 1332 2233 1247z m655 -159 c3 -5 -570 -1733 -630 -1899 -4 -11 -9 -11
-24 3 -11 10 -46 28 -78 42 -32 13 -57 27 -56 31 1 5 49 127 106 273 58 146
155 391 215 545 61 154 173 440 250 635 77 195 142 365 146 377 6 19 10 20 36
11 17 -5 32 -14 35 -18z m205 -92 c238 -126 504 -334 652 -511 l41 -48 -26
-152 c-29 -165 -48 -339 -72 -657 -29 -374 -44 -487 -81 -605 -27 -85 -66
-165 -80 -165 -18 0 -1080 119 -1126 126 -27 4 -39 12 -44 27 -3 12 -15 41
-26 64 l-21 41 246 734 c134 403 280 840 323 970 91 273 67 253 214 176z
m1808 -848 c149 -24 199 -38 273 -76 30 -15 83 -38 119 -50 35 -13 66 -27 67
-31 1 -4 -40 -158 -90 -342 l-92 -333 -112 -4 c-78 -2 -113 0 -113 8 0 6 -54
178 -121 382 -160 492 -159 488 -159 497 0 4 23 -1 50 -12 28 -10 107 -28 178
-39z m-373 -320 c14 -47 64 -202 111 -345 47 -142 83 -264 82 -271 -2 -6 -27
-31 -57 -55 -30 -24 -76 -72 -103 -107 -39 -51 -48 -59 -48 -40 0 136 -52 453
-99 613 -33 110 -34 103 29 201 16 26 32 60 35 76 9 41 18 28 50 -72z m-210
-620 c8 -68 15 -176 14 -240 l-1 -115 -24 51 c-37 78 -47 146 -35 239 6 44 13
106 16 138 4 32 8 57 10 55 3 -2 11 -60 20 -128z"/>
</g>
</svg>
