<?xml version="1.0" standalone="no"?>
<!DOCTYPE svg PUBLIC "-//W3C//DTD SVG 20010904//EN"
 "http://www.w3.org/TR/2001/REC-SVG-20010904/DTD/svg10.dtd">
<svg version="1.0" xmlns="http://www.w3.org/2000/svg"
 width="1190.000000pt" height="1280.000000pt" viewBox="0 0 1190.000000 1280.000000"
 preserveAspectRatio="xMidYMid meet">
<metadata>
Created by potrace 1.15, written by Peter Selinger 2001-2017
</metadata>
<g transform="translate(0.000000,1280.000000) scale(0.100000,-0.100000)"
fill="#c4d9ee" stroke="none">
<path d="M7084 12789 c-144 -24 -307 -95 -505 -220 -146 -91 -192 -129 -235
-193 -37 -55 -79 -173 -90 -255 l-7 -51 29 15 29 15 3 -125 c3 -143 -3 -164
-51 -166 -20 -1 -25 -3 -13 -6 15 -4 16 -7 5 -14 -11 -7 -9 -10 9 -15 12 -4
22 -9 22 -13 0 -16 -79 -108 -110 -127 -52 -33 -80 -61 -80 -80 0 -10 19 -36
43 -59 66 -64 70 -71 57 -94 -6 -12 -17 -21 -25 -21 -18 0 -35 -31 -35 -63 0
-24 49 -77 71 -77 6 0 5 -8 -1 -20 -21 -39 -8 -73 33 -93 48 -23 54 -39 27
-77 -18 -25 -21 -39 -16 -72 9 -57 23 -78 61 -94 46 -19 113 -17 217 6 149 33
199 35 251 12 56 -25 92 -83 138 -221 17 -51 46 -127 65 -169 19 -41 34 -79
34 -85 0 -5 -28 -42 -63 -81 -34 -39 -75 -87 -91 -106 -16 -19 -40 -41 -55
-49 -64 -33 -111 -99 -111 -156 0 -30 -58 -118 -207 -319 -176 -235 -195 -298
-127 -412 19 -32 70 -94 112 -137 70 -72 272 -248 332 -290 l24 -17 -46 -182
c-52 -209 -96 -330 -141 -391 -20 -26 -81 -75 -159 -127 -70 -47 -208 -148
-308 -225 -229 -177 -356 -262 -495 -330 -150 -73 -155 -74 -155 -35 0 43 -27
87 -67 105 -29 14 -52 14 -223 1 l-190 -15 -43 43 c-121 120 -289 157 -420 92
-56 -27 -93 -72 -103 -124 -5 -27 -2 -36 24 -60 l31 -29 -112 -7 c-216 -14
-418 -52 -523 -100 -109 -50 -216 -180 -256 -311 -30 -95 -29 -219 1 -296 31
-80 76 -127 212 -219 142 -96 184 -132 206 -173 19 -38 14 -73 -27 -165 -28
-62 -36 -72 -58 -72 -14 0 -45 -9 -68 -21 -35 -16 -49 -32 -73 -81 -41 -82
-47 -118 -26 -175 l17 -48 -365 -765 c-200 -421 -371 -780 -380 -797 l-16 -31
-135 44 c-230 74 -366 96 -622 102 -416 9 -707 -54 -1059 -227 -234 -116 -407
-242 -605 -440 -330 -331 -542 -755 -616 -1231 -23 -143 -26 -490 -6 -625 74
-497 279 -918 616 -1264 192 -196 383 -335 620 -451 761 -373 1652 -288 2334
222 54 40 156 131 228 203 359 356 577 799 645 1305 17 122 17 438 0 560 -89
666 -467 1257 -1030 1611 l-89 56 135 284 c74 156 138 287 142 292 8 8 105
-91 471 -478 140 -148 343 -362 450 -475 107 -113 346 -365 530 -560 184 -195
433 -458 553 -584 119 -126 217 -235 217 -241 0 -6 -27 -96 -61 -200 -33 -105
-80 -251 -104 -326 -23 -74 -53 -155 -65 -178 -45 -90 -148 -165 -293 -216
-81 -29 -137 -76 -137 -115 0 -37 62 -78 363 -234 l147 -77 0 -75 c0 -67 3
-76 29 -106 l29 -33 335 -3 c208 -2 344 1 360 7 15 6 36 25 47 43 18 29 21 46
18 135 -3 91 -5 104 -27 127 -13 14 -39 29 -58 32 -22 4 -32 11 -29 19 2 7 8
44 11 83 l7 70 79 7 c320 27 568 235 635 531 l16 71 105 7 c58 3 125 6 148 6
l42 0 6 -60 c38 -356 226 -795 477 -1110 83 -104 256 -273 370 -361 298 -231
641 -379 1035 -445 127 -22 487 -25 625 -6 423 59 823 233 1135 494 432 361
702 839 792 1404 24 153 24 486 -1 644 -68 436 -229 791 -514 1131 -327 390
-795 657 -1317 750 -170 31 -493 38 -674 15 -353 -45 -668 -166 -976 -374
l-110 -74 -48 53 c-27 30 -66 75 -88 101 l-39 46 80 27 c168 56 320 192 475
424 l89 133 -25 47 c-26 49 -123 150 -337 349 -144 135 -203 205 -249 297 -78
155 -64 328 33 404 25 20 40 21 213 21 130 0 200 4 232 14 150 46 249 142 265
258 4 30 0 62 -15 105 l-21 62 46 71 c180 279 184 586 11 840 -17 25 -83 108
-147 185 -353 426 -533 736 -677 1160 -100 296 -149 563 -160 879 -6 174 -6
179 13 171 98 -40 122 -47 170 -43 134 11 230 135 202 261 -17 75 -74 117
-161 117 -75 0 -121 -31 -125 -84 -4 -47 29 -89 67 -84 31 4 38 24 11 31 -42
11 -8 71 38 65 55 -7 54 -68 -3 -125 -20 -20 -43 -33 -58 -33 -33 0 -86 45
-103 87 -31 74 -12 134 74 226 33 35 63 74 67 85 l6 22 37 -25 c53 -36 114
-34 152 3 32 33 54 99 44 136 -8 33 -48 72 -81 81 -76 19 -132 -77 -61 -104
26 -10 47 -3 28 9 -20 13 -3 40 24 40 19 0 27 -7 32 -26 14 -54 -36 -102 -92
-88 -40 10 -48 38 -38 133 17 182 11 213 -53 282 l-47 50 51 -7 c66 -8 114 8
152 51 85 97 26 235 -101 235 -41 0 -54 -5 -79 -29 -31 -31 -37 -59 -17 -79
15 -15 48 -16 48 -2 0 6 -7 10 -16 10 -21 0 -12 24 10 28 23 5 46 -16 46 -42
0 -53 -56 -61 -102 -16 -27 27 -30 36 -25 71 9 68 59 108 222 175 301 124 513
389 612 764 24 94 27 122 27 265 -1 183 -17 261 -80 394 -43 89 -151 204 -224
239 -151 72 -339 69 -523 -8 -62 -26 -87 -43 -140 -101 -36 -38 -78 -74 -93
-79 -45 -17 -88 4 -138 68 -110 143 -374 221 -612 181z m914 -551 c11 -13 32
-48 46 -78 34 -72 34 -158 2 -316 -39 -188 -73 -270 -173 -422 -50 -75 -69
-94 -187 -181 -80 -60 -152 -122 -185 -162 -52 -61 -111 -167 -111 -199 -1
-20 -24 10 -57 74 l-25 48 34 35 c18 19 74 60 123 90 190 118 324 213 362 258
110 128 169 331 167 575 0 123 -4 154 -22 204 -12 33 -22 67 -22 78 0 25 22
23 48 -4z m-251 -1294 c73 -29 94 -128 47 -223 -17 -33 -30 -49 -36 -43 -6 6
0 24 16 47 75 111 -38 250 -154 190 -37 -19 -37 -22 -5 -22 27 0 65 -28 65
-48 0 -7 -9 -24 -21 -39 -15 -19 -30 -26 -54 -26 -42 0 -65 29 -65 82 0 89 96
127 207 82z m-608 -2786 c11 -35 34 -121 52 -193 17 -73 52 -178 79 -240 100
-231 123 -323 99 -406 -7 -24 -11 -65 -10 -91 2 -40 -2 -49 -22 -63 -16 -10
-34 -14 -51 -9 -17 4 -36 -1 -58 -14 -49 -30 -163 -68 -248 -83 -68 -12 -82
-19 -153 -75 -99 -78 -239 -150 -482 -249 -421 -171 -772 -318 -803 -336 -18
-10 -41 -19 -51 -19 -22 0 -88 -21 -276 -88 -273 -97 -444 -173 -564 -249
l-53 -34 7 -92 c19 -248 106 -433 280 -599 38 -37 65 -68 59 -68 -6 0 -211 31
-455 69 -244 39 -468 73 -497 77 -29 4 -55 11 -58 15 -8 13 169 381 187 389
78 35 95 50 123 106 39 78 42 154 7 202 l-24 34 38 86 c52 119 63 193 41 279
-30 124 -99 201 -303 340 -128 87 -149 116 -139 190 13 94 66 177 136 213 108
54 526 105 590 70 18 -10 56 -11 161 -6 76 3 151 9 167 12 26 5 30 2 42 -28
28 -71 82 -108 158 -108 184 0 1148 382 1597 633 139 77 262 165 294 209 16
22 44 73 63 114 18 41 36 74 40 74 3 0 16 -28 27 -62z m-3068 -3023 c123 -19
310 -48 414 -65 199 -32 418 -66 794 -125 123 -19 234 -35 247 -35 13 0 24 -3
24 -7 0 -5 7 -38 14 -74 16 -73 45 -136 111 -239 57 -89 105 -184 105 -209 0
-10 -12 -44 -26 -74 -30 -66 -25 -81 39 -126 23 -16 105 -93 181 -170 l140
-140 -28 -303 c-15 -167 -36 -352 -46 -413 -23 -132 -91 -407 -99 -403 -8 4
-159 162 -546 573 -182 193 -458 485 -615 650 -471 496 -943 996 -984 1043
l-39 44 26 54 c18 37 33 54 46 54 10 0 119 -16 242 -35z m-1604 -1000 c102
-14 230 -37 270 -50 9 -3 7 -19 -8 -62 -11 -32 -81 -272 -155 -533 -126 -441
-141 -487 -211 -637 -72 -154 -78 -163 -104 -163 -15 0 -30 4 -33 9 -3 5 -40
312 -81 682 -41 371 -77 693 -80 716 -5 38 -4 42 17 46 55 10 277 6 385 -8z
m7502 -9 c45 -8 85 -17 87 -19 2 -2 -25 -134 -60 -293 -36 -159 -104 -471
-151 -694 -48 -223 -90 -408 -94 -411 -3 -3 -29 -4 -57 -1 l-50 4 -63 351
c-35 194 -91 512 -126 707 -35 195 -61 357 -59 359 23 23 433 21 573 -3z
m-7974 -28 c4 -26 125 -1111 152 -1363 l5 -50 -43 -11 c-24 -7 -53 -15 -65
-19 -19 -6 -33 15 -141 212 -66 120 -220 399 -342 620 -122 221 -224 409 -227
418 -13 33 313 163 514 205 129 28 140 27 147 -12z m5092 -38 c-7 -27 -499
-1255 -506 -1263 -4 -4 -19 48 -34 115 -14 68 -38 161 -53 208 -46 147 -45
345 2 601 l16 87 121 61 c67 34 187 105 267 159 l145 98 23 -25 c12 -14 21
-33 19 -41z m2257 -110 c15 -85 49 -276 76 -425 71 -388 140 -787 140 -807 0
-11 -17 -22 -51 -33 -47 -16 -51 -16 -70 0 -31 29 -761 1175 -756 1188 7 19
189 110 302 152 115 43 317 97 326 87 4 -4 19 -77 33 -162z m913 104 c59 -20
150 -56 202 -80 108 -51 251 -132 251 -143 0 -5 -34 -57 -76 -117 -42 -60
-216 -309 -387 -554 -400 -575 -352 -513 -388 -495 -16 9 -29 18 -29 22 0 4
54 255 120 557 66 303 135 617 153 699 17 81 35 147 39 147 4 0 56 -16 115
-36z m-7390 -11 c29 -9 52 -22 49 -27 -33 -75 -280 -593 -286 -599 -4 -5 28
112 72 260 43 147 84 294 91 326 6 31 14 57 16 57 2 0 28 -8 58 -17z m5054
-190 c24 -27 55 -60 68 -75 l23 -27 -53 -61 c-36 -42 -55 -57 -60 -48 -26 48
-51 258 -31 258 4 0 28 -21 53 -47z m-4621 -26 c41 -27 79 -53 83 -57 5 -4
-98 -142 -229 -306 -326 -410 -368 -463 -371 -460 -2 2 72 160 163 352 92 192
186 391 210 442 31 66 47 91 56 86 7 -4 47 -30 88 -57z m-1720 -518 c173 -314
330 -600 348 -636 l33 -65 -33 -29 c-18 -16 -38 -27 -43 -26 -14 3 -1125 889
-1125 897 0 13 208 218 276 273 70 56 214 157 224 156 3 0 147 -256 320 -570z
m7051 484 c13 -21 102 -162 199 -313 187 -292 229 -361 213 -345 -5 6 -104
118 -218 250 -115 132 -235 270 -267 307 l-59 67 53 35 c29 20 54 36 55 36 1
0 12 -17 24 -37z m2306 -134 c96 -86 177 -174 257 -279 51 -66 56 -76 41 -85
-40 -24 -1009 -643 -1098 -701 -54 -35 -101 -64 -105 -64 -4 0 -22 18 -40 40
l-33 40 367 528 c202 290 387 555 412 589 l45 62 36 -28 c20 -16 73 -62 118
-102z m-3592 -31 c33 -68 100 -217 150 -332 l92 -209 -34 -96 c-68 -189 -110
-405 -129 -662 l-5 -76 -76 -7 c-42 -3 -108 -6 -148 -6 l-72 0 -13 43 c-32
109 -127 250 -212 317 -29 23 -55 46 -56 51 -5 12 430 1099 438 1099 4 0 33
-55 65 -122z m-3822 25 c230 -211 423 -499 521 -780 34 -98 79 -286 89 -370
l5 -43 -38 0 c-33 0 -1070 -114 -1274 -140 -133 -17 -129 -18 -148 48 -9 31
-14 60 -10 63 4 4 279 156 612 339 333 183 611 338 619 345 18 17 5 55 -20 55
-10 0 -200 -100 -422 -222 -221 -122 -499 -275 -617 -340 l-215 -118 -27 32
c-16 18 -28 37 -28 43 1 42 128 216 478 654 217 270 398 491 403 491 5 0 37
-26 72 -57z m4884 -165 c508 -584 630 -726 643 -742 8 -11 -43 20 -115 70 -71
49 -183 125 -247 169 -79 54 -116 85 -113 95 3 8 -60 120 -140 249 -113 183
-143 237 -134 247 6 8 13 14 14 14 1 0 43 -46 92 -102z m-45 -178 c163 -213
161 -210 107 -173 -187 129 -334 236 -334 244 0 13 78 110 87 107 4 -2 67 -82
140 -178z m-7076 -374 c302 -241 551 -440 553 -443 7 -5 -37 -93 -47 -93 -5 0
-75 20 -158 44 -228 68 -943 274 -1083 312 -68 19 -127 37 -132 39 -11 7 6 61
57 182 75 179 222 421 247 406 7 -5 260 -205 563 -447z m7284 37 c245 -170
490 -340 545 -377 55 -38 110 -78 122 -89 l22 -20 -21 -41 c-11 -22 -21 -42
-22 -43 0 -1 -221 47 -490 105 l-490 107 -8 35 c-45 183 -99 357 -143 463
l-54 128 26 40 c26 39 26 39 47 21 12 -11 221 -158 466 -329z m2777 170 c66
-125 117 -251 154 -382 43 -153 45 -146 -58 -164 -49 -9 -281 -50 -518 -92
-236 -42 -515 -92 -619 -111 -134 -24 -192 -31 -197 -23 -17 28 -32 90 -23 98
5 4 254 165 554 356 300 191 568 363 595 381 28 19 52 34 55 34 3 0 29 -44 57
-97z m-10732 -477 c445 -128 1035 -299 1095 -316 l65 -19 -5 -63 c-4 -52 -8
-63 -25 -67 -83 -15 -1402 -157 -1409 -151 -5 5 -6 107 -3 227 4 164 10 242
26 316 27 133 30 139 49 133 9 -3 103 -30 207 -60z m9155 -157 c65 -29 136
-103 160 -167 24 -64 25 -120 4 -192 -21 -71 -107 -159 -178 -183 -72 -25
-160 -22 -221 7 -46 21 -135 103 -135 124 0 5 62 11 138 14 159 5 194 18 226
81 30 63 17 94 -90 218 -52 60 -94 111 -94 113 0 22 129 12 190 -15z m1785 9
c14 -47 18 -392 5 -505 -7 -62 -15 -115 -19 -117 -3 -2 -145 27 -316 65 -170
38 -479 105 -685 150 -206 44 -383 82 -392 85 -14 4 -18 16 -18 48 l0 42 468
83 c257 45 571 102 697 126 127 24 235 43 241 44 7 1 15 -9 19 -21z m-2883
-78 c473 -102 449 -95 368 -104 -66 -7 -963 -54 -968 -51 -1 1 41 57 94 123
79 99 101 121 118 117 12 -3 186 -41 388 -85z m-6472 75 c0 -3 -25 -58 -56
-122 -63 -132 -70 -178 -38 -234 30 -50 78 -79 134 -79 78 0 106 26 175 167
33 68 64 121 69 120 18 -6 39 -83 39 -148 0 -86 -27 -142 -99 -208 -84 -77
-174 -98 -284 -65 -73 22 -159 107 -185 183 -52 156 29 321 185 375 49 16 60
19 60 11z m5567 -57 c-3 -8 -6 -5 -6 6 -1 11 2 17 5 13 3 -3 4 -12 1 -19z
m-957 -65 c53 -60 106 -162 88 -167 -7 -3 -59 -7 -115 -10 -81 -4 -102 -2
-107 9 -6 16 72 215 84 215 5 0 27 -21 50 -47z m-2660 -145 c0 -154 -15 -293
-46 -429 -9 -41 -18 -75 -19 -77 -2 -2 -268 73 -591 166 -324 94 -635 183
-692 199 l-103 28 3 50 3 50 105 13 c134 16 1299 149 1323 151 15 1 17 -12 17
-151z m-2361 -162 c6 -25 11 -47 11 -50 0 -2 -64 -39 -142 -82 -79 -42 -358
-196 -620 -341 -262 -144 -481 -263 -486 -263 -20 0 -114 227 -156 377 -21 74
-57 241 -52 244 4 3 1368 157 1397 158 35 1 37 -1 48 -43z m8578 -16 c124 -28
352 -78 507 -111 391 -84 638 -139 646 -144 10 -6 -33 -158 -76 -269 -36 -94
-132 -284 -164 -326 l-18 -24 -101 69 c-194 135 -1005 700 -1044 728 -32 23
-38 33 -33 52 13 51 26 75 41 75 8 0 117 -23 242 -50z m-1139 -12 c9 -26 9
-35 -1 -44 -12 -11 -1098 -708 -1164 -747 -18 -10 -36 -16 -42 -13 -17 11
-129 251 -164 351 -36 104 -74 252 -66 258 2 3 249 48 549 101 300 54 574 103
610 111 36 7 110 13 165 14 l101 1 12 -32z m-5888 -178 c790 -228 723 -206
715 -238 -34 -137 -186 -427 -293 -559 -17 -21 -18 -21 -562 414 -300 239
-553 441 -562 447 -17 12 -16 17 13 70 23 42 35 55 47 52 10 -3 298 -87 642
-186z m4999 166 c-7 -7 -521 -97 -535 -94 -8 2 -1 16 19 38 l31 35 196 11
c243 13 294 15 289 10z m-1423 -93 c-14 -61 -72 -160 -121 -209 -45 -46 -112
-91 -120 -82 -1 2 -18 46 -38 98 l-36 95 34 30 c18 17 41 42 50 57 16 26 21
27 113 31 54 1 103 4 111 5 10 1 11 -5 7 -25z m-5047 -20 c26 -31 29 -40 18
-55 -39 -55 -873 -1097 -879 -1097 -13 -1 -198 181 -248 244 -67 84 -170 236
-170 250 0 7 183 113 407 236 224 123 502 277 618 341 115 64 213 117 217 117
3 1 20 -16 37 -36z m7451 -15 c16 -18 30 -36 30 -40 0 -5 -114 -171 -253 -370
-139 -200 -320 -460 -402 -578 -81 -118 -152 -219 -156 -224 -26 -29 -310 246
-426 411 l-43 61 148 94 c81 52 325 209 542 347 217 139 422 271 455 292 33
21 63 39 68 39 4 0 21 -15 37 -32z m1090 -224 c201 -141 465 -326 588 -411
l222 -154 -47 -62 c-67 -89 -264 -284 -357 -353 l-79 -59 -16 24 c-22 32 -583
904 -686 1067 l-83 131 36 37 c20 20 41 36 47 36 5 0 174 -116 375 -256z
m-7269 -240 l559 -446 -41 -49 c-55 -66 -175 -177 -265 -244 -100 -76 -216
-147 -225 -137 -18 19 -673 1217 -676 1236 -2 15 8 30 39 53 24 17 45 32 46
32 2 1 255 -200 563 -445z m3096 308 c-17 -45 -35 -82 -38 -82 -4 0 -17 8 -29
18 -33 26 -16 67 45 114 27 20 50 36 52 34 1 -1 -12 -39 -30 -84z m-4214 48
c31 -17 54 -36 52 -43 -2 -7 -45 -156 -95 -332 -180 -630 -291 -1010 -299
-1018 -5 -5 -53 8 -107 29 -161 60 -335 152 -460 245 l-52 38 420 528 c417
524 466 583 478 583 4 0 32 -14 63 -30z m7464 -2 c32 -12 59 -23 61 -24 2 -1
-44 -220 -103 -486 -58 -265 -126 -580 -151 -698 -26 -118 -49 -218 -53 -222
-11 -11 -236 59 -351 110 -113 51 -290 151 -290 164 0 4 42 67 94 140 51 73
221 318 378 543 156 226 298 429 314 452 16 23 32 42 36 43 3 0 32 -10 65 -22z
m669 -395 c147 -230 323 -504 390 -610 l122 -192 -41 -24 c-82 -48 -203 -105
-297 -140 -90 -33 -259 -81 -265 -75 -1 2 -35 185 -75 408 -92 514 -180 1013
-180 1017 0 3 61 31 71 32 4 1 127 -187 275 -416z m-3637 288 c36 -94 34 -101
-31 -101 -34 0 -38 3 -38 25 0 48 23 176 30 168 4 -4 22 -46 39 -92z m-3789
-478 c172 -313 328 -594 347 -627 19 -32 32 -60 30 -62 -8 -8 -146 -68 -219
-95 -153 -56 -396 -108 -403 -85 -3 6 -14 101 -25 211 -12 110 -44 398 -71
640 -27 242 -53 467 -56 501 l-6 60 34 11 c19 6 39 11 45 12 6 1 152 -254 324
-566z m7029 417 c13 -74 70 -391 126 -705 56 -314 100 -573 96 -577 -24 -26
-399 -37 -565 -17 -50 7 -92 13 -94 14 -1 1 9 56 23 121 26 120 259 1189 273
1254 8 37 35 50 92 47 24 -2 26 -7 49 -137z m-7499 106 c0 -7 34 -315 75 -685
41 -369 75 -685 75 -701 l0 -30 -170 0 c-168 0 -317 15 -428 45 -30 7 -55 15
-57 17 -1 2 34 127 77 278 206 715 300 1037 310 1063 10 25 15 27 64 27 39 0
54 -4 54 -14z m3855 -277 c4 -6 -14 -66 -40 -135 -36 -93 -52 -124 -65 -124
-16 0 -13 13 21 98 21 53 39 102 39 109 0 22 19 63 29 63 5 0 13 -5 16 -11z
m241 -125 c-3 -26 -6 -66 -6 -90 l0 -44 -50 0 -49 0 24 63 c13 34 28 74 34 90
7 18 18 27 32 27 20 0 21 -4 15 -46z"/>
</g>
</svg>
